<svg id="visual" viewBox="0 0 960 540" width="960" height="540" xmlns="http://www.w3.org/2000/svg" xmlns:xlink="http://www.w3.org/1999/xlink" version="1.1"><rect x="0" y="0" width="960" height="540" fill="#140021"></rect><path d="M0 133L80 133L80 115L160 115L160 113L240 113L240 133L320 133L320 127L400 127L400 125L480 125L480 113L560 113L560 115L640 115L640 122L720 122L720 139L800 139L800 119L880 119L880 101L960 101L960 138L960 541L960 541L880 541L880 541L800 541L800 541L720 541L720 541L640 541L640 541L560 541L560 541L480 541L480 541L400 541L400 541L320 541L320 541L240 541L240 541L160 541L160 541L80 541L80 541L0 541Z" fill="#560090"></path><path d="M0 181L80 181L80 154L160 154L160 150L240 150L240 149L320 149L320 167L400 167L400 156L480 156L480 166L560 166L560 164L640 164L640 181L720 181L720 149L800 149L800 171L880 171L880 152L960 152L960 170L960 541L960 541L880 541L880 541L800 541L800 541L720 541L720 541L640 541L640 541L560 541L560 541L480 541L480 541L400 541L400 541L320 541L320 541L240 541L240 541L160 541L160 541L80 541L80 541L0 541Z" fill="#6a00b1"></path><path d="M0 208L80 208L80 220L160 220L160 220L240 220L240 213L320 213L320 222L400 222L400 205L480 205L480 205L560 205L560 228L640 228L640 227L720 227L720 230L800 230L800 211L880 211L880 206L960 206L960 204L960 541L960 541L880 541L880 541L800 541L800 541L720 541L720 541L640 541L640 541L560 541L560 541L480 541L480 541L400 541L400 541L320 541L320 541L240 541L240 541L160 541L160 541L80 541L80 541L0 541Z" fill="#7f00d4"></path><path d="M0 243L80 243L80 244L160 244L160 272L240 272L240 248L320 248L320 276L400 276L400 245L480 245L480 244L560 244L560 268L640 268L640 262L720 262L720 258L800 258L800 271L880 271L880 250L960 250L960 245L960 541L960 541L880 541L880 541L800 541L800 541L720 541L720 541L640 541L640 541L560 541L560 541L480 541L480 541L400 541L400 541L320 541L320 541L240 541L240 541L160 541L160 541L80 541L80 541L0 541Z" fill="#9500f8"></path><path d="M0 313L80 313L80 300L160 300L160 322L240 322L240 302L320 302L320 297L400 297L400 304L480 304L480 310L560 310L560 303L640 303L640 291L720 291L720 290L800 290L800 308L880 308L880 299L960 299L960 307L960 541L960 541L880 541L880 541L800 541L800 541L720 541L720 541L640 541L640 541L560 541L560 541L480 541L480 541L400 541L400 541L320 541L320 541L240 541L240 541L160 541L160 541L80 541L80 541L0 541Z" fill="#9900ff"></path><path d="M0 359L80 359L80 339L160 339L160 368L240 368L240 353L320 353L320 361L400 361L400 348L480 348L480 363L560 363L560 338L640 338L640 342L720 342L720 361L800 361L800 354L880 354L880 342L960 342L960 365L960 541L960 541L880 541L880 541L800 541L800 541L720 541L720 541L640 541L640 541L560 541L560 541L480 541L480 541L400 541L400 541L320 541L320 541L240 541L240 541L160 541L160 541L80 541L80 541L0 541Z" fill="#9500f8"></path><path d="M0 383L80 383L80 406L160 406L160 392L240 392L240 403L320 403L320 412L400 412L400 393L480 393L480 396L560 396L560 399L640 399L640 407L720 407L720 396L800 396L800 405L880 405L880 395L960 395L960 399L960 541L960 541L880 541L880 541L800 541L800 541L720 541L720 541L640 541L640 541L560 541L560 541L480 541L480 541L400 541L400 541L320 541L320 541L240 541L240 541L160 541L160 541L80 541L80 541L0 541Z" fill="#7f00d4"></path><path d="M0 456L80 456L80 430L160 430L160 457L240 457L240 433L320 433L320 431L400 431L400 445L480 445L480 452L560 452L560 431L640 431L640 439L720 439L720 435L800 435L800 453L880 453L880 436L960 436L960 448L960 541L960 541L880 541L880 541L800 541L800 541L720 541L720 541L640 541L640 541L560 541L560 541L480 541L480 541L400 541L400 541L320 541L320 541L240 541L240 541L160 541L160 541L80 541L80 541L0 541Z" fill="#6a00b1"></path><path d="M0 481L80 481L80 498L160 498L160 476L240 476L240 476L320 476L320 479L400 479L400 503L480 503L480 497L560 497L560 487L640 487L640 481L720 481L720 484L800 484L800 484L880 484L880 477L960 477L960 502L960 541L960 541L880 541L880 541L800 541L800 541L720 541L720 541L640 541L640 541L560 541L560 541L480 541L480 541L400 541L400 541L320 541L320 541L240 541L240 541L160 541L160 541L80 541L80 541L0 541Z" fill="#560090"></path></svg>