<svg id="visual" viewBox="0 0 960 540" width="960" height="540" xmlns="http://www.w3.org/2000/svg" xmlns:xlink="http://www.w3.org/1999/xlink" version="1.1"><g stroke-width="1" stroke-linejoin="bevel"><path d="M529.3 250L523.3 181L439.7 157Z" fill="#00101c" stroke="#00101c"></path><path d="M439.7 157L429.7 304L529.3 250Z" fill="#205a7a" stroke="#205a7a"></path><path d="M522.3 97L399.7 128L439.7 157Z" fill="#081a28" stroke="#081a28"></path><path d="M439.7 157L317 240L429.7 304Z" fill="#205a7a" stroke="#205a7a"></path><path d="M607 141L522.3 97L523.3 181Z" fill="#112e42" stroke="#112e42"></path><path d="M523.3 181L522.3 97L439.7 157Z" fill="#112e42" stroke="#112e42"></path><path d="M319 162L317 240L439.7 157Z" fill="#112e42" stroke="#112e42"></path><path d="M399.7 128L319 162L439.7 157Z" fill="#112e42" stroke="#112e42"></path><path d="M529.3 250L607 141L523.3 181Z" fill="#277297" stroke="#277297"></path><path d="M297 387L421.7 381L429.7 304Z" fill="#15384f" stroke="#15384f"></path><path d="M429.7 304L556.3 387L529.3 250Z" fill="#205a7a" stroke="#205a7a"></path><path d="M556.3 387L638 264L529.3 250Z" fill="#081a28" stroke="#081a28"></path><path d="M529.3 250L638 264L607 141Z" fill="#1d4e6b" stroke="#1d4e6b"></path><path d="M421.7 381L556.3 387L429.7 304Z" fill="#1d4e6b" stroke="#1d4e6b"></path><path d="M399.7 128L289 125L319 162Z" fill="#205a7a" stroke="#205a7a"></path><path d="M185.3 193L200.3 268L317 240Z" fill="#112e42" stroke="#112e42"></path><path d="M335 0L289 125L399.7 128Z" fill="#0c2435" stroke="#0c2435"></path><path d="M668 0L600 52L607 141Z" fill="#205a7a" stroke="#205a7a"></path><path d="M607 141L600 52L522.3 97Z" fill="#1d4e6b" stroke="#1d4e6b"></path><path d="M522.3 97L399.7 0L399.7 128Z" fill="#246688" stroke="#246688"></path><path d="M556.3 387L669 327L638 264Z" fill="#112e42" stroke="#112e42"></path><path d="M638 264L771.7 162L607 141Z" fill="#1d4e6b" stroke="#1d4e6b"></path><path d="M600 52L531.3 0L522.3 97Z" fill="#297ea6" stroke="#297ea6"></path><path d="M531.3 0L399.7 0L522.3 97Z" fill="#1d4e6b" stroke="#1d4e6b"></path><path d="M317 240L297 387L429.7 304Z" fill="#1d4e6b" stroke="#1d4e6b"></path><path d="M421.7 381L504.3 472L556.3 387Z" fill="#205a7a" stroke="#205a7a"></path><path d="M200.3 268L297 387L317 240Z" fill="#00101c" stroke="#00101c"></path><path d="M395.7 477L504.3 472L421.7 381Z" fill="#19435d" stroke="#19435d"></path><path d="M556.3 387L671 449L669 327Z" fill="#00101c" stroke="#00101c"></path><path d="M297 387L338 442L421.7 381Z" fill="#1d4e6b" stroke="#1d4e6b"></path><path d="M399.7 0L335 0L399.7 128Z" fill="#081a28" stroke="#081a28"></path><path d="M338 442L395.7 477L421.7 381Z" fill="#1d4e6b" stroke="#1d4e6b"></path><path d="M249.3 0L219.3 115L289 125Z" fill="#19435d" stroke="#19435d"></path><path d="M289 125L185.3 193L319 162Z" fill="#19435d" stroke="#19435d"></path><path d="M185.3 193L317 240L319 162Z" fill="#1d4e6b" stroke="#1d4e6b"></path><path d="M297 387L177.3 415L338 442Z" fill="#0c2435" stroke="#0c2435"></path><path d="M774.7 369L728.7 308L669 327Z" fill="#15384f" stroke="#15384f"></path><path d="M669 327L728.7 308L638 264Z" fill="#0c2435" stroke="#0c2435"></path><path d="M219.3 115L185.3 193L289 125Z" fill="#0c2435" stroke="#0c2435"></path><path d="M779.7 124L668 0L607 141Z" fill="#00101c" stroke="#00101c"></path><path d="M600 52L668 0L531.3 0Z" fill="#081a28" stroke="#081a28"></path><path d="M504.3 472L671 449L556.3 387Z" fill="#205a7a" stroke="#205a7a"></path><path d="M335 0L249.3 0L289 125Z" fill="#0c2435" stroke="#0c2435"></path><path d="M124.7 180L137.7 234L185.3 193Z" fill="#0c2435" stroke="#0c2435"></path><path d="M728.7 308L771.7 162L638 264Z" fill="#297ea6" stroke="#297ea6"></path><path d="M116.7 370L196.3 379L200.3 268Z" fill="#205a7a" stroke="#205a7a"></path><path d="M200.3 268L196.3 379L297 387Z" fill="#277297" stroke="#277297"></path><path d="M351 540L443.7 540L395.7 477Z" fill="#297ea6" stroke="#297ea6"></path><path d="M395.7 477L443.7 540L504.3 472Z" fill="#15384f" stroke="#15384f"></path><path d="M504.3 472L658 540L671 449Z" fill="#15384f" stroke="#15384f"></path><path d="M351 540L395.7 477L338 442Z" fill="#081a28" stroke="#081a28"></path><path d="M443.7 540L502.3 540L504.3 472Z" fill="#15384f" stroke="#15384f"></path><path d="M771.7 162L779.7 124L607 141Z" fill="#081a28" stroke="#081a28"></path><path d="M185.3 193L137.7 234L200.3 268Z" fill="#246688" stroke="#246688"></path><path d="M124.7 180L185.3 193L219.3 115Z" fill="#205a7a" stroke="#205a7a"></path><path d="M779.7 124L714.7 0L668 0Z" fill="#15384f" stroke="#15384f"></path><path d="M175.3 540L351 540L338 442Z" fill="#15384f" stroke="#15384f"></path><path d="M671 449L774.7 369L669 327Z" fill="#246688" stroke="#246688"></path><path d="M728.7 308L858.3 286L771.7 162Z" fill="#297ea6" stroke="#297ea6"></path><path d="M771.7 162L821.3 109L779.7 124Z" fill="#19435d" stroke="#19435d"></path><path d="M127.7 86L124.7 180L219.3 115Z" fill="#15384f" stroke="#15384f"></path><path d="M116.7 370L177.3 415L196.3 379Z" fill="#081a28" stroke="#081a28"></path><path d="M196.3 379L177.3 415L297 387Z" fill="#297ea6" stroke="#297ea6"></path><path d="M116.7 370L200.3 268L137.7 234Z" fill="#00101c" stroke="#00101c"></path><path d="M249.3 0L127.7 86L219.3 115Z" fill="#15384f" stroke="#15384f"></path><path d="M757.7 540L772.7 423L671 449Z" fill="#15384f" stroke="#15384f"></path><path d="M671 449L772.7 423L774.7 369Z" fill="#19435d" stroke="#19435d"></path><path d="M864.3 163L821.3 109L771.7 162Z" fill="#205a7a" stroke="#205a7a"></path><path d="M779.7 124L821.3 109L714.7 0Z" fill="#205a7a" stroke="#205a7a"></path><path d="M858.3 286L728.7 308L774.7 369Z" fill="#0c2435" stroke="#0c2435"></path><path d="M502.3 540L658 540L504.3 472Z" fill="#246688" stroke="#246688"></path><path d="M0 335L116.7 370L137.7 234Z" fill="#15384f" stroke="#15384f"></path><path d="M0 240L137.7 234L124.7 180Z" fill="#081a28" stroke="#081a28"></path><path d="M870.3 441L833.3 371L772.7 423Z" fill="#00101c" stroke="#00101c"></path><path d="M772.7 423L833.3 371L774.7 369Z" fill="#246688" stroke="#246688"></path><path d="M833.3 371L858.3 286L774.7 369Z" fill="#00101c" stroke="#00101c"></path><path d="M858.3 286L864.3 163L771.7 162Z" fill="#081a28" stroke="#081a28"></path><path d="M116.7 370L132.7 485L177.3 415Z" fill="#15384f" stroke="#15384f"></path><path d="M177.3 415L175.3 540L338 442Z" fill="#081a28" stroke="#081a28"></path><path d="M658 540L757.7 540L671 449Z" fill="#112e42" stroke="#112e42"></path><path d="M132.7 485L175.3 540L177.3 415Z" fill="#0c2435" stroke="#0c2435"></path><path d="M249.3 0L71.7 0L127.7 86Z" fill="#277297" stroke="#277297"></path><path d="M0 142L0 240L124.7 180Z" fill="#0c2435" stroke="#0c2435"></path><path d="M837.3 540L870.3 441L772.7 423Z" fill="#277297" stroke="#277297"></path><path d="M833.3 371L960 382L858.3 286Z" fill="#00101c" stroke="#00101c"></path><path d="M858.3 286L960 246L864.3 163Z" fill="#277297" stroke="#277297"></path><path d="M0 456L116.7 540L132.7 485Z" fill="#15384f" stroke="#15384f"></path><path d="M0 142L124.7 180L127.7 86Z" fill="#205a7a" stroke="#205a7a"></path><path d="M0 116L0 142L127.7 86Z" fill="#19435d" stroke="#19435d"></path><path d="M960 50L885.3 0L821.3 109Z" fill="#297ea6" stroke="#297ea6"></path><path d="M821.3 109L885.3 0L714.7 0Z" fill="#1d4e6b" stroke="#1d4e6b"></path><path d="M960 50L821.3 109L864.3 163Z" fill="#1d4e6b" stroke="#1d4e6b"></path><path d="M132.7 485L116.7 540L175.3 540Z" fill="#297ea6" stroke="#297ea6"></path><path d="M0 456L132.7 485L116.7 370Z" fill="#0c2435" stroke="#0c2435"></path><path d="M71.7 0L0 116L127.7 86Z" fill="#297ea6" stroke="#297ea6"></path><path d="M0 240L0 335L137.7 234Z" fill="#205a7a" stroke="#205a7a"></path><path d="M757.7 540L837.3 540L772.7 423Z" fill="#081a28" stroke="#081a28"></path><path d="M960 382L833.3 371L870.3 441Z" fill="#112e42" stroke="#112e42"></path><path d="M960 382L960 246L858.3 286Z" fill="#081a28" stroke="#081a28"></path><path d="M960 246L960 143L864.3 163Z" fill="#19435d" stroke="#19435d"></path><path d="M71.7 0L0 0L0 116Z" fill="#1d4e6b" stroke="#1d4e6b"></path><path d="M960 414L960 382L870.3 441Z" fill="#15384f" stroke="#15384f"></path><path d="M960 143L960 50L864.3 163Z" fill="#0c2435" stroke="#0c2435"></path><path d="M0 335L0 456L116.7 370Z" fill="#297ea6" stroke="#297ea6"></path><path d="M960 540L960 414L870.3 441Z" fill="#081a28" stroke="#081a28"></path><path d="M960 50L960 0L885.3 0Z" fill="#00101c" stroke="#00101c"></path><path d="M0 456L0 540L116.7 540Z" fill="#205a7a" stroke="#205a7a"></path><path d="M837.3 540L960 540L870.3 441Z" fill="#081a28" stroke="#081a28"></path></g></svg>